HIERARCHY
ROOT hip
{
  OFFSET 0 0 0
  CHANNELS 6 Xposition Yposition Zposition Zrotation Yrotation Xrotation
  JOINT abdomen
  {
    OFFSET 0 20.6881 -0.73152
    CHANNELS 3 Zrotation Xrotation Yrotation
    JOINT chest
    {
      OFFSET 0 11.7043 -0.48768
      CHANNELS 3 Zrotation Xrotation Yrotation
      JOINT neck
      {
        OFFSET 0 22.1894 -2.19456
        CHANNELS 3 Zrotation Xrotation Yrotation
        JOINT head
        {
          OFFSET -0.24384 7.07133 1.2192
          CHANNELS 3 Zrotation Xrotation Yrotation
          JOINT leftEye
          {
            OFFSET 4.14528 8.04674 8.04672
            CHANNELS 3 Zrotation Xrotation Yrotation
            End Site
            {
              OFFSET 1 0 0
            }
          }
          JOINT rightEye
          {
            OFFSET -3.6576 8.04674 8.04672
            CHANNELS 3 Zrotation Xrotation Yrotation
            End Site
            {
              OFFSET 1 0 0
            }
          }
        }
      }
      JOINT rCollar
      {
        OFFSET -2.68224 19.2634 -4.8768
        CHANNELS 3 Zrotation Xrotation Yrotation
        JOINT rShldr
        {
          OFFSET -8.77824 -1.95073 1.46304
          CHANNELS 3 Zrotation Xrotation Yrotation
          JOINT rForeArm
          {
            OFFSET -28.1742 -1.7115 0.48768
            CHANNELS 3 Zrotation Xrotation Yrotation
            JOINT rHand
            {
              OFFSET -22.5879 0.773209 7.07136
              CHANNELS 3 Zrotation Xrotation Yrotation
              JOINT rThumb1
              {
                OFFSET -1.2192 -0.487915 3.41376
                CHANNELS 3 Zrotation Xrotation Yrotation
                JOINT rThumb2
                {
                  OFFSET -3.37035 -0.52449 3.41376
                  CHANNELS 3 Zrotation Xrotation Yrotation
                  End Site
                  {
                    OFFSET -1.78271 -1.18214 1.43049
                  }
                }
              }
              JOINT rIndex1
              {
                OFFSET -7.75947 0.938293 5.60832
                CHANNELS 3 Zrotation Xrotation Yrotation
                JOINT rIndex2
                {
                  OFFSET -2.54057 -0.884171 1.56538
                  CHANNELS 3 Zrotation Xrotation Yrotation
                  End Site
                  {
                    OFFSET -1.62519 -0.234802 1.16502
                  }
                }
              }
              JOINT rMid1
              {
                OFFSET -8.24714 1.18213 3.41376
                CHANNELS 3 Zrotation Xrotation Yrotation
                JOINT rMid2
                {
                  OFFSET -3.10165 -0.590103 1.0647
                  CHANNELS 3 Zrotation Xrotation Yrotation
                  End Site
                  {
                    OFFSET -2.48547 -0.328903 0.83742
                  }
                }
              }
              JOINT rRing1
              {
                OFFSET -8.82822 0.546677 1.51678
                CHANNELS 3 Zrotation Xrotation Yrotation
                JOINT rRing2
                {
                  OFFSET -2.60934 -0.819778 -0.0198488
                  CHANNELS 3 Zrotation Xrotation Yrotation
                  End Site
                  {
                    OFFSET -2.33842 -0.294052 0.168128
                  }
                }
              }
              JOINT rPinky1
              {
                OFFSET -8.27202 -0.0477905 -0.4584
                CHANNELS 3 Zrotation Xrotation Yrotation
                JOINT rPinky2
                {
                  OFFSET -1.82734 -0.647385 -0.700984
                  CHANNELS 3 Zrotation Xrotation Yrotation
                  End Site
                  {
                    OFFSET -1.69225 -0.51767 -0.607171
                  }
                }
              }
            }
          }
        }
      }
      JOINT lCollar
      {
        OFFSET 2.68224 19.2634 -4.8768
        CHANNELS 3 Zrotation Xrotation Yrotation
        JOINT lShldr
        {
          OFFSET 8.77824 -1.95073 1.46304
          CHANNELS 3 Zrotation Xrotation Yrotation
          JOINT lForeArm
          {
            OFFSET 28.1742 -1.7115 0.48768
            CHANNELS 3 Zrotation Xrotation Yrotation
            JOINT lHand
            {
              OFFSET 22.5879 0.773209 7.07136
              CHANNELS 3 Zrotation Xrotation Yrotation
              JOINT lThumb1
              {
                OFFSET 1.2192 -0.487915 3.41376
                CHANNELS 3 Zrotation Xrotation Yrotation
                JOINT lThumb2
                {
                  OFFSET 3.37035 -0.52449 3.41376
                  CHANNELS 3 Zrotation Xrotation Yrotation
                  End Site
                  {
                    OFFSET 1.78271 -1.18214 1.43049
                  }
                }
              }
              JOINT lIndex1
              {
                OFFSET 7.75947 0.938293 5.60832
                CHANNELS 3 Zrotation Xrotation Yrotation
                JOINT lIndex2
                {
                  OFFSET 2.54057 -0.884171 1.56538
                  CHANNELS 3 Zrotation Xrotation Yrotation
                  End Site
                  {
                    OFFSET 1.62519 -0.234802 1.16502
                  }
                }
              }
              JOINT lMid1
              {
                OFFSET 8.24714 1.18213 3.41376
                CHANNELS 3 Zrotation Xrotation Yrotation
                JOINT lMid2
                {
                  OFFSET 3.10165 -0.590103 1.0647
                  CHANNELS 3 Zrotation Xrotation Yrotation
                  End Site
                  {
                    OFFSET 2.48547 -0.328903 0.83742
                  }
                }
              }
              JOINT lRing1
              {
                OFFSET 8.82822 0.546677 1.51678
                CHANNELS 3 Zrotation Xrotation Yrotation
                JOINT lRing2
                {
                  OFFSET 2.60934 -0.819778 -0.0198488
                  CHANNELS 3 Zrotation Xrotation Yrotation
                  End Site
                  {
                    OFFSET 2.33842 -0.294052 0.168128
                  }
                }
              }
              JOINT lPinky1
              {
                OFFSET 8.27202 -0.0477905 -0.4584
                CHANNELS 3 Zrotation Xrotation Yrotation
                JOINT lPinky2
                {
                  OFFSET 1.82734 -0.647385 -0.700984
                  CHANNELS 3 Zrotation Xrotation Yrotation
                  End Site
                  {
                    OFFSET 1.69225 -0.51767 -0.607171
                  }
                }
              }
            }
          }
        }
      }
    }
  }
  JOINT rButtock
  {
    OFFSET -8.77824 4.35084 1.2192
    CHANNELS 3 Zrotation Xrotation Yrotation
    JOINT rThigh
    {
      OFFSET 0 -1.70687 -2.19456
      CHANNELS 3 Zrotation Xrotation Yrotation
      JOINT rShin
      {
        OFFSET 0 -36.8199 0.73152
        CHANNELS 3 Zrotation Xrotation Yrotation
        JOINT rFoot
        {
          OFFSET 0.73152 -45.1104 -5.12064
          CHANNELS 3 Zrotation Xrotation Yrotation
          End Site
          {
            OFFSET -1.1221 -3.69964 12.103
          }
        }
      }
    }
  }
  JOINT lButtock
  {
    OFFSET 8.77824 4.35084 1.2192
    CHANNELS 3 Zrotation Xrotation Yrotation
    JOINT lThigh
    {
      OFFSET 0 -1.70687 -2.19456
      CHANNELS 3 Zrotation Xrotation Yrotation
      JOINT lShin
      {
        OFFSET 0 -36.8199 0.73152
        CHANNELS 3 Zrotation Xrotation Yrotation
        JOINT lFoot
        {
          OFFSET -0.73152 -45.1104 -5.12064
          CHANNELS 3 Zrotation Xrotation Yrotation
          End Site
          {
            OFFSET 1.1221 -3.69964 12.103
          }
        }
      }
    }
  }
}
MOTION
Frames:	4
Frame Time:	0.00833333
47.1951 85.5269 257.695 0.0 0.0 0.0 2.34102 -0.0022243 0.0637217 0.646598 0.00594964 0.111939 8.63333e-15 -7.95139e-16 3.97569e-16 2.67086e-14 3.18055e-15 1.19271e-15 -0.0 0.0 0.0 -0.0 0.0 0.0 4.71979e-15 -3.06719e-17 3.47873e-16 9.5024e-14 -3.16813e-16 5.36719e-15 1.59868e-12 -4.99148e-13 6.04305e-14 1.82864e-11 3.75579e-13 8.5875e-13 4.31314e-11 -2.75519e-13 1.98467e-12 7.44834e-11 -4.83444e-13 3.42228e-12 4.31383e-11 -2.73925e-13 1.97831e-12 7.73091 5.47488 0.417314 4.31335e-11 -2.74919e-13 1.98467e-12 2.90554 0.965183 0.102902 4.31442e-11 -2.7482e-13 1.97831e-12 10.2786 0.731801 0.0259123 4.31257e-11 -2.73925e-13 1.98149e-12 2.22167 -0.733487 -0.20892 4.62338e-15 -2.83423e-17 4.96962e-17 9.02966e-14 -4.28629e-16 3.57812e-15 1.59793e-12 4.60982e-13 7.31528e-14 1.82967e-11 -5.90217e-13 8.39666e-13 4.31567e-11 -2.86381e-13 1.96558e-12 7.45343e-11 -4.92986e-13 3.40955e-12 4.3149e-11 -2.85852e-13 1.98467e-12 -7.73091 5.47488 -0.417314 4.31579e-11 -2.87144e-13 1.96558e-12 -2.90554 0.965183 -0.102902 4.31516e-11 -2.86349e-13 1.97433e-12 -10.2786 0.731801 -0.0259123 4.31593e-11 -2.82672e-13 1.96876e-12 -2.22167 -0.733487 0.20892 -2.03217e-16 0.0 -3.88251e-19 2.21538 -8.02975 -0.231352 0.00607243 8.97371 0.152079 -0.477574 -0.951468 0.0348516 2.03217e-16 0.0 3.88251e-19 1.35196 -1.92788 -0.00535618 0.00846733 -2.07867 0.0694667 0.423975 3.99897 -0.127307
48.3848 84.0013 246.088 177.175 12.5398 179.537 -0.697675 1.9281 -0.745729 0.179706 -0.937548 -0.118541 0.971483 3.56602 1.5348 -2.09329 -3.57511 3.11213 -0.0 0.0 0.0 -0.0 0.0 0.0 -1.84709e-14 -2.25828e-14 -7.01531e-15 21.4217 13.5736 -2.96147 -7.02141 -4.05432 9.86722 0.0205517 3.25899 0.455613 2.49592e-10 -3.2877e-10 2.46023e-10 4.34079e-10 -5.69166e-10 4.23525e-10 2.49598e-10 -3.28766e-10 2.46015e-10 7.73091 5.47488 0.417314 2.49592e-10 -3.28769e-10 2.46024e-10 2.90554 0.965183 0.102902 2.49601e-10 -3.28768e-10 2.46019e-10 10.2786 0.731801 0.0259123 2.49587e-10 -3.28768e-10 2.46023e-10 2.22167 -0.733487 -0.20892 -1.85587e-14 -2.25719e-14 -7.2568e-15 -20.2493 2.34308 2.99756 5.47115 -2.79911 -8.17798 -0.0695451 5.85577 -0.807535 1.51555e-10 1.88143e-10 1.50458e-10 2.64239e-10 3.25321e-10 2.57813e-10 1.51549e-10 1.88145e-10 1.50473e-10 -7.73091 5.47488 -0.417314 1.51557e-10 1.88144e-10 1.50457e-10 -2.90554 0.965183 -0.102902 1.5155e-10 1.88144e-10 1.50465e-10 -10.2786 0.731801 -0.0259123 1.51556e-10 1.88147e-10 1.50459e-10 -2.22167 -0.733487 0.20892 -2.03217e-16 0.0 -3.88251e-19 1.94134 -11.9081 2.41965 -0.00353917 17.837 0.293541 -1.17174 -6.14446 -3.50508 2.03217e-16 0.0 3.88251e-19 -1.1499 -4.69515 -2.93046 -0.0433069 6.43575 -0.136136 1.35136 -3.31736 5.62957
48.3828 84.0093 245.996 177.179 12.8121 179.358 -3.85515 3.97125 -1.59832 -0.315869 -1.93628 -0.360574 1.77745 7.32152 3.17639 -3.85412 -7.32149 6.44229 -0.0 0.0 0.0 -0.0 0.0 0.0 -4.46465e-14 -4.83775e-14 -1.55269e-14 45.7779 27.8374 -6.70195 -12.9538 -7.94738 20.4636 -0.0148258 6.62109 0.930794 4.8352e-10 -7.05289e-10 5.30487e-10 8.41652e-10 -1.22108e-09 9.13292e-10 4.83525e-10 -7.05282e-10 5.30476e-10 7.73091 5.47488 0.417314 4.83517e-10 -7.05287e-10 5.30489e-10 2.90554 0.965183 0.102902 4.83526e-10 -7.05286e-10 5.30485e-10 10.2786 0.731801 0.0259123 4.83516e-10 -7.05286e-10 5.3049e-10 2.22167 -0.733487 -0.20892 -4.47227e-14 -4.83574e-14 -1.57071e-14 -41.926 4.80279 6.18042 10.3902 -5.56384 -16.878 0.0401325 12.0501 -1.69084 2.83468e-10 4.07932e-10 3.18423e-10 4.94899e-10 7.05232e-10 5.45408e-10 2.83466e-10 4.07935e-10 3.18434e-10 -7.73091 5.47488 -0.417314 2.83472e-10 4.07934e-10 3.18421e-10 -2.90554 0.965183 -0.102902 2.83465e-10 4.07935e-10 3.18427e-10 -10.2786 0.731801 -0.0259123 2.83469e-10 4.07936e-10 3.18422e-10 -2.22167 -0.733487 0.20892 -2.03217e-16 0.0 -3.88251e-19 2.05722 -15.9524 5.3215 -0.0674984 27.1941 0.467696 -2.61924 -11.5705 -7.3692 2.03217e-16 0.0 3.88251e-19 -4.10482 -7.58732 -6.06769 -0.0296382 15.4324 -0.364783 3.94338 -10.85 11.9137
48.3615 84.0219 245.94 177.129 13.0645 179.176 -6.61078 5.78429 -2.37547 -0.776871 -2.8244 -0.580158 2.33342 10.6671 4.67648 -5.10335 -10.5977 9.48138 -0.0 0.0 0.0 -0.0 0.0 0.0 -6.48522e-14 -6.76871e-14 -2.17417e-14 69.5564 40.2153 -11.3404 -17.0218 -10.7212 30.105 -0.0957708 9.77449 1.38473 6.62514e-10 -9.85758e-10 7.34101e-10 1.15327e-09 -1.70653e-09 1.26373e-09 6.62518e-10 -9.8575e-10 7.34089e-10 7.73091 5.47488 0.417314 6.62508e-10 -9.85756e-10 7.34104e-10 2.90554 0.965183 0.102902 6.62516e-10 -9.85755e-10 7.34101e-10 10.2786 0.731801 0.0259123 6.6251e-10 -9.85755e-10 7.34106e-10 2.22167 -0.733487 -0.20892 -6.49229e-14 -6.76591e-14 -2.18698e-14 -61.4846 6.95207 9.05226 14.0797 -7.71447 -24.7432 0.306966 17.553 -2.52773 3.68351e-10 5.65003e-10 4.47443e-10 6.43649e-10 9.76949e-10 7.6662e-10 3.6835e-10 5.65006e-10 4.47451e-10 -7.73091 5.47488 -0.417314 3.68355e-10 5.65005e-10 4.4744e-10 -2.90554 0.965183 -0.102902 3.68348e-10 5.65006e-10 4.47446e-10 -10.2786 0.731801 -0.0259123 3.68351e-10 5.65007e-10 4.47441e-10 -2.22167 -0.733487 0.20892 -2.03217e-16 0.0 -3.88251e-19 2.52662 -19.5174 8.02468 -0.185007 35.5622 0.661184 -4.54181 -16.2782 -10.9693 2.03217e-16 0.0 3.88251e-19 -7.00937 -10.1275 -8.89077 0.0488332 23.4635 -0.593774 7.7047 -17.1758 17.9397
